HIERARCHY
ROOT Hips
{
	OFFSET 0.000000 0.000000 0.000000
	CHANNELS 6 Xposition Yposition Zposition Xrotation Yrotation Zrotation
	JOINT LeftUpLeg_virtual
	{
		OFFSET 0.000000 0.000000 0.000000
		CHANNELS 3 Xrotation Yrotation Zrotation
		JOINT LeftUpLeg
		{
			OFFSET 13.026900 -6.336304 -1.092800
			CHANNELS 3 Xrotation Yrotation Zrotation
			JOINT LeftLeg
			{
				OFFSET 0.524474 -46.096886 9.782700
				CHANNELS 3 Xrotation Yrotation Zrotation
				JOINT LeftFoot
				{
					OFFSET -0.524474 -53.427422 -12.948200
					CHANNELS 3 Xrotation Yrotation Zrotation
					JOINT LeftToeBase
					{
						OFFSET 0.192200 -14.009700 16.364100
						CHANNELS 3 Xrotation Yrotation Zrotation
						JOINT LeftToe_End
						{
							OFFSET -1.784700 -0.561700 9.474800
							CHANNELS 3 Xrotation Yrotation Zrotation
							End Site
							{
								OFFSET 0 0 0
							}
						}
					}
				}
			}
		}
	}
	JOINT RightUpLeg_virtual
	{
		OFFSET 0.000000 0.000000 0.000000
		CHANNELS 3 Xrotation Yrotation Zrotation
		JOINT RightUpLeg
		{
			OFFSET -12.883000 -6.336304 -1.092800
			CHANNELS 3 Xrotation Yrotation Zrotation
			JOINT RightLeg
			{
				OFFSET -0.524587 -46.096825 9.782800
				CHANNELS 3 Xrotation Yrotation Zrotation
				JOINT RightFoot
				{
					OFFSET 0.524587 -53.427383 -12.948300
					CHANNELS 3 Xrotation Yrotation Zrotation
					JOINT RightToeBase
					{
						OFFSET -0.192200 -14.009700 16.364100
						CHANNELS 3 Xrotation Yrotation Zrotation
						JOINT RightToe_End
						{
							OFFSET 1.784700 -0.561700 9.474800
							CHANNELS 3 Xrotation Yrotation Zrotation
							End Site
							{
								OFFSET 0 0 0
							}
						}
					}
				}
			}
		}
	}
	JOINT Spine_virtual
	{
		OFFSET 0.000000 0.000000 0.000000
		CHANNELS 3 Xrotation Yrotation Zrotation
		JOINT Spine
		{
			OFFSET 0.072000 7.257294 -0.789700
			CHANNELS 3 Xrotation Yrotation Zrotation
			JOINT Spine1
			{
				OFFSET 0.000000 12.508769 -0.658067
				CHANNELS 3 Xrotation Yrotation Zrotation
				JOINT Spine1_split
				{
					OFFSET 0.000000 12.508769 -0.658067
					CHANNELS 3 Xrotation Yrotation Zrotation
					JOINT Spine2
					{
						OFFSET 0.000000 12.508769 -0.658067
						CHANNELS 3 Xrotation Yrotation Zrotation
						JOINT Neck_virtual
						{
							OFFSET 0.000000 0.000000 0.000000
							CHANNELS 3 Xrotation Yrotation Zrotation
							JOINT Neck
							{
								OFFSET 0.000000 14.033295 7.520400
								CHANNELS 3 Xrotation Yrotation Zrotation
								JOINT Head
								{
									OFFSET 0.000000 8.198502 5.703100
									CHANNELS 3 Xrotation Yrotation Zrotation
									JOINT HeadTop_End
									{
										OFFSET 0.000000 17.760803 13.332701
										CHANNELS 3 Xrotation Yrotation Zrotation
										End Site
										{
											OFFSET 0 0 0
										}
									}
								}
							}
						}
						JOINT LeftShoulder_virtual
						{
							OFFSET 0.000000 0.000000 0.000000
							CHANNELS 3 Xrotation Yrotation Zrotation
							JOINT LeftShoulder
							{
								OFFSET 6.292450 5.785301 -0.669000
								CHANNELS 3 Xrotation Yrotation Zrotation
								JOINT LeftShoulder_split
								{
									OFFSET 6.292450 5.785301 -0.669000
									CHANNELS 3 Xrotation Yrotation Zrotation
									JOINT LeftArm
									{
										OFFSET 13.907140 -6.093903 1.965100
										CHANNELS 3 Xrotation Yrotation Zrotation
										JOINT LeftForeArm
										{
											OFFSET 34.140198 0.000000 0.000000
											CHANNELS 3 Xrotation Yrotation Zrotation
											JOINT LeftHand
											{
												OFFSET 40.960209 0.000000 0.000000
												CHANNELS 3 Xrotation Yrotation Zrotation
												End Site
												{
													OFFSET 0 0 0
												}
											}
										}
									}
								}
							}
						}
						JOINT RightShoulder_virtual
						{
							OFFSET 0.000000 0.000000 0.000000
							CHANNELS 3 Xrotation Yrotation Zrotation
							JOINT RightShoulder
							{
								OFFSET -6.292450 5.785301 -0.669000
								CHANNELS 3 Xrotation Yrotation Zrotation
								JOINT RightShoulder_split
								{
									OFFSET -6.292450 5.785301 -0.669000
									CHANNELS 3 Xrotation Yrotation Zrotation
									JOINT RightArm
									{
										OFFSET -13.907140 -6.093903 1.965100
										CHANNELS 3 Xrotation Yrotation Zrotation
										JOINT RightForeArm
										{
											OFFSET -34.140198 0.000000 0.000000
											CHANNELS 3 Xrotation Yrotation Zrotation
											JOINT RightHand
											{
												OFFSET -40.960209 0.000000 0.000000
												CHANNELS 3 Xrotation Yrotation Zrotation
												End Site
												{
													OFFSET 0 0 0
												}
											}
										}
									}
								}
							}
						}
					}
				}
			}
		}
	}
}
MOTION
Frames: 8
Frame Time: 0.03333333
0.332491 132.078644 -6.015667 0.000000 0.000000 0.000000 -86.178491 -4.996895 1.131820 7.090702 20.679335 7.521712 -6.774915 5.999069 7.489663 32.370357 27.091833 -25.983827 -9.536749 0.264172 2.547807 0.000000 0.000000 0.000000 -88.176875 -0.873233 4.098281 4.100703 -21.582431 -14.500802 -3.425334 -1.293103 -7.181125 34.608422 -30.289403 33.074624 -7.834196 0.848422 -0.855182 0.000000 0.000000 0.000000 -86.607598 -6.564662 -1.282779 4.974245 -2.052239 1.010586 4.703696 -0.946405 -1.480423 0.454458 0.698216 -0.375465 0.000000 0.000000 0.000000 5.561642 -1.505452 -1.288139 -8.418803 -1.513426 2.458974 -9.706022 -3.638063 4.562797 0.000000 0.000000 0.000000 6.595707 -1.560947 -0.938202 -0.235793 3.598225 -7.803454 -4.304396 1.847886 -4.318380 39.846562 -32.325591 -34.510979 -26.228630 -88.387839 -25.693773 0.000000 0.000000 0.000000 5.937509 -1.497339 -1.408107 0.442317 -3.276378 19.419039 1.142487 2.512550 0.184148 -41.173053 49.669747 58.706671 179.789294 76.734375 178.668050 0.000000 0.000000 0.000000 
0.255799 132.114746 -6.514034 0.000000 0.000000 0.000000 -86.999186 -4.934746 1.274224 8.317904 20.727227 7.553383 -6.854070 6.452484 7.593309 31.941287 27.428868 -26.154406 -9.466593 0.275720 2.630921 0.000000 0.000000 0.000000 -89.247029 -0.667637 4.474087 4.482085 -22.608111 -14.486792 -3.276001 -1.242592 -7.185273 34.627153 -30.016059 33.028561 -7.796075 0.886290 -0.781339 0.000000 0.000000 0.000000 -87.656647 -6.336210 -1.029173 4.962750 -2.126979 1.044062 4.433155 -1.016090 -1.614637 0.633440 0.687302 -0.411268 0.000000 0.000000 0.000000 5.460613 -1.557819 -1.444332 -9.126651 -1.389365 2.611946 -11.657619 -3.134812 5.383105 0.000000 0.000000 0.000000 6.460657 -1.612682 -1.101866 -0.186839 3.122698 -7.065201 -4.476115 1.528239 -4.175039 38.942627 -32.229747 -35.820698 -27.139810 -88.525549 -26.504781 0.000000 0.000000 0.000000 5.723434 -1.530979 -1.515963 0.445184 -3.007709 18.109444 0.843295 2.831211 -0.122524 -44.990903 47.878479 61.352618 -178.402492 77.916380 176.832587 0.000000 0.000000 0.000000 
0.230511 132.070984 -6.724239 0.000000 0.000000 0.000000 -87.535971 -4.891323 1.297347 9.110858 20.552468 7.835383 -6.717561 6.789827 7.671725 31.671123 27.888405 -26.312863 -9.450466 0.272174 2.737595 0.000000 0.000000 0.000000 -89.933948 -0.611379 4.586893 4.604882 -23.400576 -14.351481 -3.285001 -1.267570 -7.146222 35.088184 -29.720687 32.977755 -8.211532 0.909341 -0.717561 0.000000 0.000000 0.000000 -88.354589 -6.149046 -0.914735 4.903148 -2.095525 1.170249 4.336829 -1.024886 -1.661483 0.806892 0.657720 -0.403492 0.000000 0.000000 0.000000 5.406549 -1.542278 -1.539065 -9.325196 -1.219712 2.426057 -11.911531 -2.557507 5.842580 0.000000 0.000000 0.000000 6.431597 -1.615154 -1.217499 -0.155042 2.595539 -6.611050 -4.536653 1.274902 -3.873962 38.370220 -32.280905 -36.524327 -27.749204 -88.859620 -27.094753 0.000000 0.000000 0.000000 5.659642 -1.475716 -1.536656 0.470969 -2.706674 17.072297 0.413325 2.989427 -0.368477 -46.530937 46.922580 61.926675 -176.622121 78.984431 175.073704 0.000000 0.000000 0.000000 
0.246220 131.987167 -6.692932 0.000000 0.000000 0.000000 -87.744319 -4.862919 1.213200 9.378644 20.143218 8.288768 -6.417641 6.952310 7.729604 31.611751 28.362700 -26.475683 -9.416812 0.259702 2.824328 0.000000 0.000000 0.000000 -90.194219 -0.723984 4.408431 4.559073 -23.775982 -14.143061 -3.419255 -1.319026 -7.103351 35.961738 -29.406307 33.055203 -9.079634 0.909978 -0.689963 0.000000 0.000000 0.000000 -88.678805 -6.047493 -0.954285 4.817675 -1.955710 1.365050 4.355181 -0.992378 -1.623546 1.037187 0.637037 -0.352311 0.000000 0.000000 0.000000 5.358805 -1.464449 -1.569341 -8.936304 -1.052522 1.950133 -10.339753 -1.957131 5.925007 0.000000 0.000000 0.000000 6.480681 -1.586831 -1.269530 -0.134655 2.128625 -6.448791 -4.377225 1.075369 -3.385204 38.259031 -32.541483 -36.587151 -29.049078 -89.302825 -28.439753 0.000000 0.000000 0.000000 5.738170 -1.364826 -1.479319 0.528911 -2.472129 16.442627 -0.034297 3.013646 -0.510208 -45.142271 47.150326 60.203972 -175.535015 79.613764 174.097560 0.000000 0.000000 0.000000 
0.267998 131.852661 -6.432137 0.000000 0.000000 0.000000 -87.682451 -4.921115 1.001443 9.135350 19.512754 8.789773 -6.076685 6.926959 7.799963 31.756702 28.815605 -26.617298 -9.276529 0.253287 2.830880 0.000000 0.000000 0.000000 -89.980953 -0.913953 4.041650 4.457918 -23.643803 -13.830325 -3.691365 -1.365075 -7.119735 36.942571 -29.243544 33.133528 -9.993658 0.890195 -0.709863 0.000000 0.000000 0.000000 -88.646662 -6.060654 -1.157267 4.719216 -1.744026 1.568256 4.434876 -0.951356 -1.528252 1.238780 0.520941 -0.226535 0.000000 0.000000 0.000000 5.291269 -1.360951 -1.534056 -7.923620 -0.920771 1.308353 -6.918693 -1.444730 5.602431 0.000000 0.000000 0.000000 6.600376 -1.559621 -1.260222 -0.113968 1.826160 -6.504621 -4.131093 1.021379 -2.844490 38.542498 -32.942299 -36.175421 -38.655674 -89.687842 -38.126727 0.000000 0.000000 0.000000 5.906331 -1.251946 -1.364556 0.611223 -2.417076 16.284959 -0.257606 3.061895 -0.606475 -40.345118 48.282460 56.099359 -175.752297 79.319219 174.537889 0.000000 0.000000 0.000000 
0.290792 131.687073 -6.138695 0.000000 0.000000 0.000000 -87.327746 -5.064248 0.687373 8.458848 18.761922 9.211846 -5.869206 6.780795 7.889287 31.941803 29.257013 -26.642092 -8.967559 0.258915 2.729330 0.000000 0.000000 0.000000 -89.406309 -1.133547 3.560953 4.346058 -23.041653 -13.427140 -4.049600 -1.441265 -7.205370 37.733189 -29.369564 33.054547 -10.595507 0.864832 -0.753988 0.000000 0.000000 0.000000 -88.288275 -6.180049 -1.496479 4.636378 -1.508282 1.729484 4.537284 -0.936598 -1.381626 1.309454 0.322977 -0.160231 0.000000 0.000000 0.000000 5.177042 -1.256411 -1.441380 -6.324987 -0.860069 0.602477 -1.888196 -1.181185 4.915987 0.000000 0.000000 0.000000 6.752760 -1.552759 -1.177091 -0.093180 1.800326 -6.679630 -3.776938 1.021979 -2.364205 39.108943 -33.480904 -35.476426 -52.117980 -89.817616 -51.704754 0.000000 0.000000 0.000000 6.112735 -1.166613 -1.210858 0.715142 -2.653764 16.572400 -0.238016 3.146915 -0.638292 -32.199001 49.453575 49.775127 -177.191773 77.748788 176.279765 0.000000 0.000000 0.000000 
0.271250 131.494232 -5.779961 0.000000 0.000000 0.000000 -86.758791 -5.271526 0.313355 7.481543 18.079611 9.502065 -5.915059 6.574012 8.000849 32.079763 29.603945 -26.507423 -8.621293 0.271521 2.543168 0.000000 0.000000 0.000000 -88.558798 -1.324032 3.085639 4.207442 -22.104082 -12.994244 -4.413328 -1.543250 -7.360189 38.282527 -29.749896 32.767897 -10.883284 0.848305 -0.792726 0.000000 0.000000 0.000000 -87.696630 -6.348437 -1.910795 4.605098 -1.295134 1.811763 4.635163 -0.964485 -1.196199 1.296409 0.297467 -0.108699 0.000000 0.000000 0.000000 5.011209 -1.187904 -1.293803 -4.258030 -0.916617 -0.061696 4.341939 -1.227688 3.964493 0.000000 0.000000 0.000000 6.883392 -1.582617 -1.026037 -0.074200 2.080828 -6.864271 -3.503109 0.998652 -2.044750 39.790640 -34.135161 -34.665887 -31.015708 -89.570213 -30.739239 0.000000 0.000000 0.000000 6.281980 -1.133218 -1.026838 0.829870 -3.238233 17.257660 -0.080661 3.310840 -0.691483 -21.952131 49.565467 42.384872 -178.797974 74.866960 178.227516 0.000000 0.000000 0.000000 
0.230713 131.283707 -5.451752 0.000000 0.000000 0.000000 -86.038343 -5.521937 -0.104859 6.309100 17.601618 9.667758 -6.167124 6.322871 8.101277 32.168125 29.742974 -26.255047 -8.420286 0.270953 2.346388 0.000000 0.000000 0.000000 -87.616130 -1.478427 2.624307 3.962150 -21.048112 -12.582335 -4.709830 -1.642310 -7.543659 38.810047 -30.188422 32.453388 -11.089497 0.847574 -0.827597 0.000000 0.000000 0.000000 -86.938999 -6.528628 -2.365572 4.653730 -1.144869 1.806458 4.701442 -1.052572 -0.980702 1.179419 0.350213 -0.146706 0.000000 0.000000 0.000000 4.793047 -1.168789 -1.100839 -1.906952 -1.036107 -0.626124 11.115821 -1.638943 2.884876 0.000000 0.000000 0.000000 6.941153 -1.654194 -0.819181 -0.064092 2.632291 -6.991545 -3.256396 0.987091 -1.982898 40.503008 -34.909001 -33.855147 -21.134729 -88.866157 -21.013917 0.000000 0.000000 0.000000 6.370244 -1.156080 -0.818369 0.957553 -4.149407 18.218172 0.147917 3.441181 -0.606113 -11.769015 48.078791 35.763103 -179.920420 71.145361 179.656050 0.000000 0.000000 0.000000 
